<svg xmlns="http://www.w3.org/2000/svg" viewBox="0 0 24 24" width="24" height="24">
  <circle cx="12" cy="12" r="12" fill="#1DB954"/>
  <path d="M17.9 10.9c-2.9-1.7-7.7-1.9-10.5-1-.5.1-.9-.1-1.1-.6-.1-.5.1-.9.6-1.1 3.2-1 8.5-.8 11.8 1.2.4.3.6.8.3 1.2-.2.4-.7.5-1.1.3zm-.8 2.8c-.2.4-.7.5-1 .3-2.4-1.5-6.1-1.9-8.9-1-.4.1-.8-.1-.9-.5-.1-.4.1-.8.5-.9 3.3-1 7.4-.5 10.1 1.2.3.1.4.6.2.9zm-1.1 2.7c-.2.3-.5.4-.8.2-2.1-1.3-4.8-1.6-7.9-.9-.3.1-.6-.1-.7-.4-.1-.3.1-.6.4-.7 3.4-.8 6.4-.4 8.8 1 .3.2.4.5.2.8z" fill="white"/>
</svg>
